<?xml version="1.0" encoding="UTF-8" standalone="no"?>
<!-- Created with Inkscape (http://www.inkscape.org/) -->

<svg
   width="49.220924mm"
   height="49.220924mm"
   viewBox="0 0 49.220924 49.220924"
   version="1.1"
   id="svg5"
   xmlns:xlink="http://www.w3.org/1999/xlink"
   xmlns="http://www.w3.org/2000/svg"
   xmlns:svg="http://www.w3.org/2000/svg">
  <defs
     id="defs2">
    <rect
       x="118.24213"
       y="388.85754"
       width="184.19283"
       height="69.395302"
       id="rect23098" />
  </defs>
  <g
     id="layer1"
     style="display:none"
     transform="translate(-32.524899,-69.24432)">
    <image
       width="156.36089"
       height="104.24059"
       preserveAspectRatio="none"
       style="stroke-width:0.331388;image-rendering:optimizeSpeed"
       xlink:href="../Downloads/istockphoto-1128248556-612x612.jpg"
       id="image1798"
       x="29.28196"
       y="39.566319" />
  </g>
  <g
     id="layer2"
     transform="translate(-32.524899,-69.24432)">
    <g
       id="g53966"
       transform="translate(-0.20020785,1.0583333)">
      <path
         style="fill:none;stroke:#ffffff;stroke-width:1.265;stroke-linecap:butt;stroke-linejoin:miter;stroke-miterlimit:4;stroke-dasharray:none;stroke-opacity:1"
         d="m 72.851144,89.333735 c 1.280385,-0.35921 2.532033,-0.820796 3.739069,-1.378903 0.981006,-0.453595 1.948768,-0.982915 2.703119,-1.756915 0.625189,-0.641474 1.087998,-1.443974 1.307548,-2.312391 0.09167,-0.362609 0.141276,-0.742522 0.07744,-1.111052 -0.06384,-0.368529 -0.251703,-0.726149 -0.559789,-0.938216 -0.258504,-0.177938 -0.584195,-0.242091 -0.897199,-0.219393 -0.313003,0.0227 -0.615231,0.127153 -0.898483,0.262263 -0.586863,0.27993 -1.103984,0.692593 -1.550504,1.165233 -0.539527,0.571088 -0.978653,1.2283 -1.401313,1.89056 -1.175226,1.841446 -2.245222,3.749902 -3.468839,5.559554 -1.798378,2.659687 -3.977817,5.141001 -6.760002,6.743357 -3.028981,1.744494 -6.626093,2.346214 -10.115063,2.133905 -4.718309,-0.287116 -9.322206,-2.030299 -13.116641,-4.849366 -3.091981,-2.29718 -5.69766,-5.37523 -6.932357,-9.023916 -0.573946,-1.696082 -0.844532,-3.488835 -0.862572,-5.279305 -0.01588,-1.57666 0.166311,-3.170044 0.707638,-4.650948 0.315318,-0.862614 0.749783,-1.679561 1.263505,-2.440887 0.263493,-0.390491 0.550402,-0.769496 0.901506,-1.083564 0.351103,-0.314067 0.771339,-0.562093 1.232812,-0.656719 0.565797,-0.116018 1.164499,0.0069 1.677555,0.272131 0.292897,0.15143 0.56111,0.347436 0.809773,0.56397 0.600957,0.52331 1.087441,1.16373 1.548643,1.813572 0.552754,0.77884 1.075888,1.578421 1.631664,2.355107 1.075333,1.502755 2.274992,2.921235 3.632983,4.174421 1.812994,1.673073 3.91219,3.047861 6.20742,3.952318 2.126715,0.838052 4.399074,1.265924 6.678101,1.442798 3.939321,0.305728 7.972211,-0.142905 11.635822,-1.622661 1.35836,-0.54865 2.657389,-1.23404 4.004619,-1.80948 0.645454,-0.275692 1.302277,-0.526211 1.974064,-0.729482 0.369999,-0.111955 0.749357,-0.210217 1.135919,-0.211841 0.386562,-0.0016 0.785246,0.101962 1.078612,0.353694 0.179956,0.154417 0.314647,0.360966 0.383378,0.587913"
         id="path1916" />
      <path
         style="fill:none;stroke:#ffffff;stroke-width:0.865;stroke-linecap:butt;stroke-linejoin:miter;stroke-miterlimit:4;stroke-dasharray:0.0865, 0.0865;stroke-dashoffset:0;stroke-opacity:1"
         d="m 74.062739,88.701002 c -2.358314,0.824852 -4.804107,1.399342 -7.283033,1.710705 -1.482363,0.186191 -2.976343,0.278505 -4.47035,0.281605 -1.775009,0.0037 -3.557282,-0.119609 -5.290342,-0.503241 -1.529146,-0.338493 -3.011405,-0.878356 -4.41602,-1.571118 -1.383705,-0.68245 -2.694383,-1.514102 -3.894772,-2.483352 C 47.162768,84.88773 45.802697,83.413046 44.665996,81.784083 43.733708,80.448057 42.950838,79.008147 42.332234,77.501012 41.979539,76.641724 41.680383,75.761591 41.351547,74.892893 41.014838,74.003397 40.640008,73.11364 40.05507,72.36369 39.760562,71.9861 39.415311,71.64814 39.031523,71.361756"
         id="path1920" />
    </g>
    <text
       xml:space="preserve"
       transform="matrix(0.26458333,0,0,0.26458333,2.5759211,-0.8098622)"
       id="text23096"
       style="font-style:normal;font-weight:normal;font-size:53.3333px;line-height:0;font-family:sans-serif;letter-spacing:4.68px;word-spacing:0px;white-space:pre;shape-inside:url(#rect23098);display:inline;fill:#ffffff;fill-opacity:1;stroke:none"
       dy="0"><tspan
         x="118.24219"
         y="440.05074"
         id="tspan2096"><tspan
           style="line-height:1.35;font-family:System-ui;-inkscape-font-specification:System-ui"
           id="tspan2094">CRISP</tspan></tspan></text>
  </g>
</svg>
