<?xml version="1.0" encoding="UTF-8" standalone="no"?>
<!-- Created with Inkscape (http://www.inkscape.org/) -->

<svg
   width="49.220924mm"
   height="49.220924mm"
   viewBox="0 0 49.220924 49.220924"
   version="1.1"
   id="svg5"
   sodipodi:docname="crisp_logo.svg"
   inkscape:version="1.1.2 (0a00cf5339, 2022-02-04)"
   xmlns:inkscape="http://www.inkscape.org/namespaces/inkscape"
   xmlns:sodipodi="http://sodipodi.sourceforge.net/DTD/sodipodi-0.dtd"
   xmlns:xlink="http://www.w3.org/1999/xlink"
   xmlns="http://www.w3.org/2000/svg"
   xmlns:svg="http://www.w3.org/2000/svg">
  <sodipodi:namedview
     id="namedview7"
     pagecolor="#ffffff"
     bordercolor="#666666"
     borderopacity="1.0"
     inkscape:pageshadow="2"
     inkscape:pageopacity="0.0"
     inkscape:pagecheckerboard="0"
     inkscape:document-units="mm"
     showgrid="false"
     inkscape:zoom="2.6547419"
     inkscape:cx="148.22533"
     inkscape:cy="85.695714"
     inkscape:window-width="1920"
     inkscape:window-height="1136"
     inkscape:window-x="0"
     inkscape:window-y="0"
     inkscape:window-maximized="1"
     inkscape:current-layer="g53966"
     fit-margin-top="0"
     fit-margin-left="0"
     fit-margin-right="0"
     fit-margin-bottom="0" />
  <defs
     id="defs2">
    <rect
       x="118.24213"
       y="388.85754"
       width="184.19283"
       height="69.395302"
       id="rect23098" />
    <inkscape:path-effect
       effect="spiro"
       id="path-effect1922"
       is_visible="true"
       lpeversion="1" />
    <inkscape:path-effect
       effect="spiro"
       id="path-effect1918"
       is_visible="true"
       lpeversion="1" />
    <inkscape:path-effect
       effect="spiro"
       id="path-effect867"
       is_visible="true"
       lpeversion="1" />
  </defs>
  <g
     inkscape:label="Layer 1"
     inkscape:groupmode="layer"
     id="layer1"
     style="display:none"
     transform="translate(-32.524899,-69.24432)">
    <image
       width="156.36089"
       height="104.24059"
       preserveAspectRatio="none"
       style="stroke-width:0.331388;image-rendering:optimizeSpeed"
       xlink:href="../Downloads/istockphoto-1128248556-612x612.jpg"
       id="image1798"
       x="29.28196"
       y="39.566319" />
  </g>
  <g
     inkscape:groupmode="layer"
     id="layer2"
     inkscape:label="Layer 2"
     transform="translate(-32.524899,-69.24432)">
    <g
       id="g53966"
       transform="translate(0,1.0583333)">
      <path
         style="fill:none;stroke:#000000;stroke-width:1.265;stroke-linecap:butt;stroke-linejoin:miter;stroke-miterlimit:4;stroke-dasharray:none;stroke-opacity:1"
         d="m 72.851144,89.333735 c 1.280385,-0.35921 2.532033,-0.820796 3.739069,-1.378903 0.981006,-0.453595 1.948768,-0.982915 2.703119,-1.756915 0.625189,-0.641474 1.087998,-1.443974 1.307548,-2.312391 0.09167,-0.362609 0.141276,-0.742522 0.07744,-1.111052 -0.06384,-0.368529 -0.251703,-0.726149 -0.559789,-0.938216 -0.258504,-0.177938 -0.584195,-0.242091 -0.897199,-0.219393 -0.313003,0.0227 -0.615231,0.127153 -0.898483,0.262263 -0.586863,0.27993 -1.103985,0.692593 -1.550504,1.165233 -0.539526,0.571088 -0.978651,1.228301 -1.401313,1.89056 -1.175232,1.841442 -2.245261,3.749875 -3.468839,5.559554 -1.798329,2.659739 -3.97764,5.141277 -6.760002,6.743357 -3.029088,1.744144 -6.626092,2.344835 -10.115063,2.133905 -4.718895,-0.285287 -9.326582,-2.023625 -13.116641,-4.849366 -3.08692,-2.301504 -5.677272,-5.383757 -6.932357,-9.023916 -0.583988,-1.693758 -0.872875,-3.487727 -0.862572,-5.279305 0.0091,-1.573659 0.248251,-3.145808 0.707638,-4.650948 0.328457,-0.857319 0.753137,-1.677732 1.263505,-2.440887 0.261951,-0.391697 0.548853,-0.771039 0.900314,-1.084917 0.351462,-0.313879 0.772308,-0.561123 1.234004,-0.655366 0.565865,-0.115506 1.164482,0.007 1.677555,0.272131 0.292927,0.151377 0.561124,0.347418 0.809773,0.56397 0.60092,0.52335 1.087428,1.16374 1.548643,1.813572 0.552769,0.778829 1.075893,1.578417 1.631664,2.355107 1.075322,1.502763 2.274989,2.921238 3.632983,4.174421 1.812998,1.673069 3.912191,3.04786 6.20742,3.952318 2.126714,0.838054 4.399074,1.265925 6.678101,1.442798 3.939321,0.305727 7.972211,-0.142905 11.635822,-1.622661 1.35836,-0.54865 2.657389,-1.23404 4.004619,-1.80948 0.645454,-0.275692 1.302277,-0.526211 1.974064,-0.729482 0.369999,-0.111955 0.749357,-0.210217 1.135919,-0.211841 0.386562,-0.0016 0.785246,0.101962 1.078612,0.353694 0.179956,0.154417 0.314647,0.360966 0.383378,0.587913"
         id="path1916"
         sodipodi:nodetypes="caaaaaaaaaaaaaccaaaaaaaaaaaac"
         inkscape:original-d="m 72.851144,89.333735 c -10.653369,2.097434 2.551607,-0.783419 3.739069,-1.378903 0.960617,-0.481726 1.967042,-0.973949 2.703119,-1.756915 0.606519,-0.645156 1.182467,-1.43578 1.307548,-2.312391 0.09913,-0.69472 0.07294,-1.620186 -0.482351,-2.049268 -0.473771,-0.366088 -1.230071,-0.153506 -1.795682,0.04287 -0.610751,0.212048 -1.094864,0.706568 -1.550504,1.165233 -0.552834,0.556504 -0.959789,1.242194 -1.401313,1.89056 -1.229478,1.805453 -2.108581,3.850468 -3.468839,5.559554 -1.982028,2.490305 -3.960834,5.228526 -6.760002,6.743357 -3.03058,1.640064 -6.678367,2.385595 -10.115063,2.133905 C 50.37812,99.031262 45.663484,97.287182 41.910485,94.522371 38.85661,92.2726 36.484904,88.979439 34.978128,85.498455 34.269806,83.862076 34.125331,82.002226 34.115556,80.21915 c -0.0086,-1.568134 0.202765,-3.166286 0.707638,-4.650948 0.589515,-1.186854 0.346166,-1.627132 1.263505,-2.440887 0.426554,-0.37303 1.247591,-1.50286 2.134318,-1.740283 0.547219,-0.146519 1.152439,0.0596 1.677555,0.272131 0.30491,0.123407 0.56602,0.3431 0.809773,0.56397 0.589076,0.533775 1.063563,1.183791 1.548643,1.813572 0.582774,0.756617 1.045342,1.601236 1.631664,2.355107 1.132475,1.456093 2.235046,2.970894 3.632983,4.174421 1.858939,1.600417 3.938545,3.020013 6.20742,3.952318 2.106489,0.865579 4.402275,1.358305 6.678101,1.442798 3.913444,0.145292 7.873795,-0.534863 11.635822,-1.622661 1.407171,-0.406887 2.64934,-1.253685 4.004619,-1.80948 0.649053,-0.266174 1.279914,-0.628118 1.974064,-0.729482 0.731927,-0.10688 1.575745,-0.2311 2.214531,0.141853 0.202041,0.117961 0.04948,0.377105 0.383378,0.587913"
         inkscape:path-effect="#path-effect1918" />
      <path
         style="fill:none;stroke:#000000;stroke-width:0.865;stroke-linecap:butt;stroke-linejoin:miter;stroke-miterlimit:4;stroke-dasharray:0.0865, 0.0865;stroke-dashoffset:0;stroke-opacity:1"
         d="m 74.062739,88.701002 c -2.314403,0.957447 -4.784392,1.53762 -7.283033,1.710705 -1.192967,0.08264 -2.391416,0.07312 -3.584855,-0.0024 -1.331307,-0.08425 -2.657069,-0.250568 -3.970086,-0.486072 -1.849051,-0.331648 -3.681199,-0.803324 -5.405942,-1.547798 -1.66317,-0.717897 -3.215883,-1.686349 -4.609164,-2.844052 -1.45563,-1.20951 -2.738655,-2.626352 -3.798905,-4.19404 -0.87783,-1.297961 -1.601024,-2.694307 -2.263101,-4.114498 -0.760122,-1.630503 -1.464975,-3.332119 -2.685502,-4.653724 -0.424449,-0.4596 -0.906232,-0.866196 -1.430628,-1.207367"
         id="path1920"
         inkscape:path-effect="#path-effect1922"
         inkscape:original-d="m 74.062739,88.701002 c -0.772983,0.02808 -4.805761,1.424509 -7.283033,1.710705 -1.187056,0.137139 -2.392144,0.07074 -3.584855,-0.0024 -1.330744,-0.08161 -2.663509,-0.220752 -3.970086,-0.486072 -1.836896,-0.373009 -3.691308,-0.790597 -5.405942,-1.547798 -1.651466,-0.729305 -3.221215,-1.689573 -4.609164,-2.844052 -1.450164,-1.206228 -2.703792,-2.658238 -3.798905,-4.19404 -0.908759,-1.274456 -1.494704,-2.75081 -2.263101,-4.114498 -0.879207,-1.560343 -1.536363,-3.279987 -2.685502,-4.653724 -0.400373,-0.478626 9.02e-4,-0.739203 -1.430628,-1.207367"
         sodipodi:nodetypes="caaaaaaaac" />
    </g>
    <text
       xml:space="preserve"
       transform="matrix(0.26458333,0,0,0.26458333,2.5759211,-0.8098622)"
       id="text23096"
       style="font-style:normal;font-weight:normal;font-size:53.3333px;line-height:0;font-family:sans-serif;letter-spacing:4.68px;word-spacing:0px;white-space:pre;shape-inside:url(#rect23098);fill:#000000;fill-opacity:1;stroke:none"
       dy="0"><tspan
         x="118.24219"
         y="438.71156"
         id="tspan59847"><tspan
           style="line-height:1.35;font-family:System-ui;-inkscape-font-specification:System-ui"
           id="tspan59845">CRISP</tspan></tspan></text>
  </g>
</svg>
