<?xml version="1.0" encoding="UTF-8" standalone="no"?>
<!-- Created with Inkscape (http://www.inkscape.org/) -->

<svg
   width="49.220924mm"
   height="49.220924mm"
   viewBox="0 0 49.220924 49.220924"
   version="1.1"
   id="svg5"
   sodipodi:docname="crisp_logo.svg"
   inkscape:version="1.2.2 (b0a8486541, 2022-12-01)"
   xmlns:inkscape="http://www.inkscape.org/namespaces/inkscape"
   xmlns:sodipodi="http://sodipodi.sourceforge.net/DTD/sodipodi-0.dtd"
   xmlns:xlink="http://www.w3.org/1999/xlink"
   xmlns="http://www.w3.org/2000/svg"
   xmlns:svg="http://www.w3.org/2000/svg">
  <sodipodi:namedview
     id="namedview7"
     pagecolor="#ffffff"
     bordercolor="#666666"
     borderopacity="1.0"
     inkscape:pageshadow="2"
     inkscape:pageopacity="0.0"
     inkscape:pagecheckerboard="0"
     inkscape:document-units="mm"
     showgrid="false"
     inkscape:zoom="1.327371"
     inkscape:cx="320.93515"
     inkscape:cy="146.90694"
     inkscape:window-width="1920"
     inkscape:window-height="1043"
     inkscape:window-x="0"
     inkscape:window-y="0"
     inkscape:window-maximized="1"
     inkscape:current-layer="layer2"
     fit-margin-top="0"
     fit-margin-left="0"
     fit-margin-right="0"
     fit-margin-bottom="0"
     inkscape:showpageshadow="2"
     inkscape:deskcolor="#d1d1d1" />
  <defs
     id="defs2">
    <rect
       x="118.24213"
       y="388.85754"
       width="184.19283"
       height="69.395302"
       id="rect23098" />
    <inkscape:path-effect
       effect="spiro"
       id="path-effect1922"
       is_visible="true"
       lpeversion="1" />
    <inkscape:path-effect
       effect="spiro"
       id="path-effect1918"
       is_visible="true"
       lpeversion="1" />
  </defs>
  <g
     inkscape:label="Layer 1"
     inkscape:groupmode="layer"
     id="layer1"
     style="display:none"
     transform="translate(-32.524899,-69.24432)">
    <image
       width="156.36089"
       height="104.24059"
       preserveAspectRatio="none"
       style="stroke-width:0.331388;image-rendering:optimizeSpeed"
       xlink:href="../Downloads/istockphoto-1128248556-612x612.jpg"
       id="image1798"
       x="29.28196"
       y="39.566319" />
  </g>
  <g
     inkscape:groupmode="layer"
     id="layer2"
     inkscape:label="Layer 2"
     transform="translate(-32.524899,-69.24432)">
    <g
       id="g53966"
       transform="translate(-0.20020785,1.0583333)">
      <path
         style="fill:none;stroke:#000000;stroke-width:1.265;stroke-linecap:butt;stroke-linejoin:miter;stroke-miterlimit:4;stroke-dasharray:none;stroke-opacity:1"
         d="m 72.851144,89.333735 c 1.280385,-0.35921 2.532033,-0.820796 3.739069,-1.378903 0.981006,-0.453595 1.948768,-0.982915 2.703119,-1.756915 0.625189,-0.641474 1.087998,-1.443974 1.307548,-2.312391 0.09167,-0.362609 0.141276,-0.742522 0.07744,-1.111052 -0.06384,-0.368529 -0.251703,-0.726149 -0.559789,-0.938216 -0.258504,-0.177938 -0.584195,-0.242091 -0.897199,-0.219393 -0.313003,0.0227 -0.615231,0.127153 -0.898483,0.262263 -0.586863,0.27993 -1.103984,0.692593 -1.550504,1.165233 -0.539527,0.571088 -0.978653,1.2283 -1.401313,1.89056 -1.175226,1.841446 -2.245222,3.749902 -3.468839,5.559554 -1.798378,2.659687 -3.977817,5.141001 -6.760002,6.743357 -3.028981,1.744494 -6.626093,2.346214 -10.115063,2.133905 -4.718309,-0.287116 -9.322206,-2.030299 -13.116641,-4.849366 -3.091981,-2.29718 -5.69766,-5.37523 -6.932357,-9.023916 -0.573946,-1.696082 -0.844532,-3.488835 -0.862572,-5.279305 -0.01588,-1.57666 0.166311,-3.170044 0.707638,-4.650948 0.315318,-0.862614 0.749783,-1.679561 1.263505,-2.440887 0.263493,-0.390491 0.550402,-0.769496 0.901506,-1.083564 0.351103,-0.314067 0.771339,-0.562093 1.232812,-0.656719 0.565797,-0.116018 1.164499,0.0069 1.677555,0.272131 0.292897,0.15143 0.56111,0.347436 0.809773,0.56397 0.600957,0.52331 1.087441,1.16373 1.548643,1.813572 0.552754,0.77884 1.075888,1.578421 1.631664,2.355107 1.075333,1.502755 2.274992,2.921235 3.632983,4.174421 1.812994,1.673073 3.91219,3.047861 6.20742,3.952318 2.126715,0.838052 4.399074,1.265924 6.678101,1.442798 3.939321,0.305728 7.972211,-0.142905 11.635822,-1.622661 1.35836,-0.54865 2.657389,-1.23404 4.004619,-1.80948 0.645454,-0.275692 1.302277,-0.526211 1.974064,-0.729482 0.369999,-0.111955 0.749357,-0.210217 1.135919,-0.211841 0.386562,-0.0016 0.785246,0.101962 1.078612,0.353694 0.179956,0.154417 0.314647,0.360966 0.383378,0.587913"
         id="path1916"
         sodipodi:nodetypes="caaaaaaaaaaaaaaaaaaaaaaaaaaac"
         inkscape:original-d="m 72.851144,89.333735 c -10.653369,2.097434 2.551606,-0.78342 3.739069,-1.378903 0.960617,-0.481726 1.967042,-0.973949 2.703119,-1.756915 0.60652,-0.645156 1.182467,-1.43578 1.307548,-2.312391 0.09913,-0.69472 0.07294,-1.620186 -0.482351,-2.049268 -0.473771,-0.366088 -1.230071,-0.153506 -1.795682,0.04287 -0.610751,0.212048 -1.094864,0.706568 -1.550504,1.165233 -0.552834,0.556504 -0.959789,1.242194 -1.401313,1.89056 -1.229478,1.805453 -2.108581,3.850468 -3.468839,5.559554 -1.982028,2.490305 -3.960834,5.228526 -6.760002,6.743357 -3.03058,1.640064 -6.678367,2.385595 -10.115063,2.133905 C 50.37812,99.031262 45.663484,97.287182 41.910485,94.522371 38.85661,92.2726 36.484904,88.979439 34.978128,85.498455 34.269807,83.862076 34.125332,82.002226 34.115556,80.21915 c -0.0086,-1.568134 0.222802,-3.159622 0.707638,-4.650948 0.283259,-0.871286 0.685852,-1.729766 1.263505,-2.440887 0.57878,-0.712509 1.247591,-1.50286 2.134318,-1.740283 0.547219,-0.146519 1.152439,0.0596 1.677555,0.272131 0.30491,0.123407 0.56602,0.3431 0.809773,0.56397 0.589076,0.533775 1.063563,1.183791 1.548643,1.813572 0.582774,0.756617 1.045342,1.601236 1.631664,2.355107 1.132475,1.456093 2.235046,2.970894 3.632983,4.174421 1.858939,1.600417 3.938545,3.020013 6.20742,3.952318 2.106489,0.865579 4.402275,1.358305 6.678101,1.442798 3.913444,0.145292 7.873795,-0.534863 11.635822,-1.622661 1.407171,-0.406887 2.64934,-1.253685 4.004619,-1.80948 0.649053,-0.266174 1.279914,-0.628118 1.974064,-0.729482 0.731927,-0.10688 1.575745,-0.2311 2.214531,0.141853 0.202041,0.117961 0.04948,0.377105 0.383378,0.587913"
         inkscape:path-effect="#path-effect1918" />
      <path
         style="fill:none;stroke:#000000;stroke-width:0.865;stroke-linecap:butt;stroke-linejoin:miter;stroke-miterlimit:4;stroke-dasharray:0.0865, 0.0865;stroke-dashoffset:0;stroke-opacity:1"
         d="m 74.062739,88.701002 c -2.358314,0.824852 -4.804107,1.399342 -7.283033,1.710705 -1.482363,0.186191 -2.976343,0.278505 -4.47035,0.281605 -1.775009,0.0037 -3.557282,-0.119609 -5.290342,-0.503241 -1.529146,-0.338493 -3.011405,-0.878356 -4.41602,-1.571118 -1.383705,-0.68245 -2.694383,-1.514102 -3.894772,-2.483352 C 47.162768,84.88773 45.802697,83.413046 44.665996,81.784083 43.733708,80.448057 42.950838,79.008147 42.332234,77.501012 41.979539,76.641724 41.680383,75.761591 41.351547,74.892893 41.014838,74.003397 40.640008,73.11364 40.05507,72.36369 39.760562,71.9861 39.415311,71.64814 39.031523,71.361756"
         id="path1920"
         inkscape:path-effect="#path-effect1922"
         inkscape:original-d="m 74.062739,88.701002 c -0.772983,0.02808 -4.816109,1.345914 -7.283033,1.710705 -1.477009,0.218409 -2.97747,0.30544 -4.47035,0.281605 -1.771182,-0.02828 -3.560985,-0.119563 -5.290342,-0.503241 -1.525304,-0.338407 -3.012387,-0.884906 -4.41602,-1.571118 -1.383252,-0.676248 -2.712118,-1.497437 -3.894772,-2.483352 -1.520665,-1.267697 -2.885901,-2.744537 -4.042226,-4.351518 -0.949625,-1.319724 -1.657046,-2.804722 -2.333762,-4.283071 -0.386583,-0.844526 -0.604786,-1.758785 -0.980687,-2.608119 -0.383419,-0.866322 -0.935292,-1.857205 -1.296477,-2.529203 -0.314973,-0.58602 0.407987,-0.53377 -1.023547,-1.001934"
         sodipodi:nodetypes="caaaaaaaasc" />
    </g>
    <text
       xml:space="preserve"
       transform="matrix(0.26458333,0,0,0.26458333,2.5759211,-0.8098622)"
       id="text23096"
       style="font-style:normal;font-weight:normal;font-size:53.3333px;line-height:0;font-family:sans-serif;letter-spacing:4.68px;word-spacing:0px;white-space:pre;shape-inside:url(#rect23098);display:inline;fill:#000000;fill-opacity:1;stroke:none"
       dy="0"><tspan
         x="118.24219"
         y="440.05074"
         id="tspan2351"><tspan
           style="line-height:1.35;font-family:System-ui;-inkscape-font-specification:System-ui"
           id="tspan2349">CRISP</tspan></tspan></text>
  </g>
</svg>
